<svg id="svg8" width="210mm" height="297mm" version="1.1" viewBox="0 0 210 297" xmlns="http://www.w3.org/2000/svg">
	<g id="layer7">
		<path id="path955" d="m25.574 175.12 38.374-68.943 15.358 46.869s37.863-7.6768 50.286-18.899c18.411-16.631-7.733-21.923-7.733-21.923-13.856-0.36078-29.156 13.073-33.903-3.7798-6.3099-16.631 24.846-30.845 39.693-33.413 17.482-3.0238 65.703-30.73 61.164-9.0714-3.1276 14.923-21.446 33.758-39.426 36.437l-0.59586 22.679 0.59586-22.679 22.929-12.624 25.759 15.951c-12.338 5.5344-12.338 5.0052-12.338 5.0052l-24.342-15.346" fill="none" stroke="#241fa1" stroke-width="8.363" style="paint-order:normal"/>
	</g>
	<g id="layer1">
		<text id="text5378" transform="matrix(1.1758 -.4347 -.15132 .90644 0 0)" x="37.279556" y="215.60023" fill="#000000" font-family="sans-serif" font-size="21.521px" letter-spacing="0px" stroke-width=".53803" word-spacing="0px" style="line-height:1.25" xml:space="preserve"><tspan id="tspan5376" x="37.279556" y="215.60023" stroke-width=".53803"><tspan id="tspan5374" x="37.279556" y="215.60023" fill="#000000" font-family="sans-serif" font-size="103.3px" stroke-width=".53803" style="font-feature-settings:normal;font-variant-caps:normal;font-variant-ligatures:normal;font-variant-numeric:normal">A</tspan></tspan></text>
	</g>
	<g id="layer3">
		<text id="text5358" transform="matrix(1.0974 -.42937 -.046293 .92933 0 0)" x="124.67031" y="200.6147" fill="#000000" font-family="sans-serif" font-size="19.072px" letter-spacing="0px" stroke-width=".47679" word-spacing="0px" style="line-height:1.25" xml:space="preserve"><tspan id="tspan5356" x="124.67031" y="200.6147" stroke-width=".47679"><tspan id="tspan5354" x="124.67031" y="200.6147" font-family="sans-serif" font-size="91.544px" stroke-width=".47679" style="font-feature-settings:normal;font-variant-caps:normal;font-variant-ligatures:normal;font-variant-numeric:normal">R</tspan></tspan></text>
	</g>
	<g id="layer2">
		<text id="text5352" transform="matrix(1.0913 -.51873 -.027315 .92935 0 0)" x="74.755424" y="210.6548" fill="#000000" font-family="sans-serif" font-size="19.429px" letter-spacing="0px" stroke-width=".48571" word-spacing="0px" style="line-height:1.25" xml:space="preserve"><tspan id="tspan5350" x="74.755424" y="210.6548" stroke-width=".48571"><tspan id="tspan5348" x="74.755424" y="210.6548" font-family="sans-serif" font-size="93.257px" stroke-width=".48571" style="font-feature-settings:normal;font-variant-caps:normal;font-variant-ligatures:normal;font-variant-numeric:normal">S</tspan></tspan></text>
	</g>
</svg>
