<svg id="svg8" width="210mm" height="297mm" version="1.1" viewBox="0 0 210 297" xmlns="http://www.w3.org/2000/svg">
	<defs id="defs2">
		<filter id="filter3314" x="-.0058664" y="-.0025968" width="1.0117" height="1.0052" color-interpolation-filters="sRGB">
			<feGaussianBlur id="feGaussianBlur3316" stdDeviation="0.16248203"/>
		</filter>
	</defs>
	<g id="layer1">
		<g id="layer1-6" transform="translate(14.532 .1499)" fill="none" filter="url(#filter3314)" opacity=".486" stroke="#1f5a5a">
			<text id="text3256" transform="matrix(1.4086 0 .019246 .70994 0 0)" x="-9.9777851" y="33.501324" fill="none" font-family="'Bradley Hand ITC'" font-size="5.1832px" letter-spacing="0px" opacity=".493" stroke="#14196c" stroke-linejoin="round" stroke-miterlimit="10" stroke-width=".35939" word-spacing="0px" style="font-feature-settings:normal;font-variant-caps:normal;font-variant-ligatures:normal;font-variant-numeric:normal;line-height:1.25" xml:space="preserve"><tspan id="tspan4719" x="-9.9777851" y="33.501324"> &lt;html&gt;</tspan><tspan id="tspan4721" x="-9.9777851" y="39.980274"/><tspan id="tspan4723" x="-9.9777851" y="46.459225">  	             &lt;body&gt;</tspan><tspan id="tspan4725" x="-9.9777851" y="52.938175"/><tspan id="tspan4727" x="-9.9777851" y="59.41713"/><tspan id="tspan4729" x="-9.9777851" y="65.89608"/><tspan id="tspan4731" x="-9.9777851" y="72.375031"/><tspan id="tspan4733" x="-9.9777851" y="78.853981"/><tspan id="tspan4735" x="-9.9777851" y="85.332932"/><tspan id="tspan4737" x="-9.9777851" y="91.811882"/><tspan id="tspan4739" x="-9.9777851" y="98.290833"/><tspan id="tspan4741" x="-9.9777851" y="104.76978"/><tspan id="tspan4743" x="-9.9777851" y="111.24873"/><tspan id="tspan4745" x="-9.9777851" y="117.72768"/><tspan id="tspan4747" x="-9.9777851" y="124.20663"/><tspan id="tspan4749" x="-9.9777851" y="130.68559"/><tspan id="tspan4751" x="-9.9777851" y="137.16454"/><tspan id="tspan4753" x="-9.9777851" y="143.64349"/><tspan id="tspan4755" x="-9.9777851" y="150.12244"/><tspan id="tspan4757" x="-9.9777851" y="156.60139"/><tspan id="tspan4759" x="-9.9777851" y="163.08034"/><tspan id="tspan4761" x="-9.9777851" y="169.5593"/><tspan id="tspan4763" x="-9.9777851" y="176.03824"/><tspan id="tspan4765" x="-9.9777851" y="182.5172"/><tspan id="tspan4767" x="-9.9777851" y="188.99615"/><tspan id="tspan4769" x="-9.9777851" y="195.4751"/><tspan id="tspan4771" x="-9.9777851" y="201.95406"/><tspan id="tspan4773" x="-9.9777851" y="208.433">	             &lt;/body&gt;</tspan><tspan id="tspan4775" x="-9.9777851" y="214.91196"/><tspan id="tspan4777" x="-9.9777851" y="221.3909"> &lt;/html&gt;</tspan></text>
		</g>
	</g>
</svg>
